/* XPM */
const char * conn_dark_xpm[] = {
"20 20 38 1",
" 	c None",
".	c #7B7C63",
"+	c #7A7B61",
"@	c #7B7C64",
"#	c #797B60",
"$	c #7A7B63",
"%	c #7B7C67",
"&	c #797A5F",
"*	c #797B61",
"=	c #7A7B65",
"-	c #7C7D6A",
";	c #787A5F",
">	c #797A60",
",	c #797B62",
"'	c #7D7D6E",
")	c #78795E",
"!	c #78795F",
"~	c #787A60",
"{	c #797B63",
"]	c #7B7C69",
"^	c #7D7D70",
"/	c #787960",
"(	c #797A64",
"_	c #7C7D6E",
":	c #77785D",
"<	c #77785E",
"[	c #77795E",
"}	c #797A63",
"|	c #7A7B66",
"1	c #7A7B67",
"2	c #77785F",
"3	c #777860",
"4	c #777960",
"5	c #76785D",
"6	c #76775C",
"7	c #76775D",
"8	c #75765C",
"9	c #75765B",
"                    ",
"                    ",
"  .                 ",
"  +@                ",
"  #$%               ",
"  &*=-              ",
"  ;>,%'             ",
"  )!~{]^            ",
"  ))!/(]_           ",
"  :<<[/}|1          ",
"  ::::<2343         ",
"  55555555          ",
"  6666667           ",
"  666666            ",
"  66666             ",
"  8888              ",
"  999               ",
"  99                ",
"  9                 ",
"                    "};
