/* XPM */
static char * conn_xpm[] = {
"20 20 62 1",
" 	c None",
".	c #E6F632",
"+	c #DFEF2E",
"@	c #E9F939",
"#	c #D9E82B",
"$	c #E0EF33",
"%	c #F1FC44",
"&	c #D2E128",
"*	c #D7E62D",
"=	c #E4F23A",
"-	c #FAFF56",
";	c #CDDC26",
">	c #D0DE29",
",	c #D7E630",
"'	c #EAF745",
")	c #FEFF6B",
"!	c #C8D624",
"~	c #C9D826",
"{	c #CDDB2A",
"]	c #D8E635",
"^	c #F0FB4F",
"/	c #FFFF79",
"(	c #C4D223",
"_	c #C4D224",
":	c #C5D426",
"<	c #CAD82A",
"[	c #D6E438",
"}	c #EEF850",
"|	c #FDFF6B",
"1	c #C0CE22",
"2	c #C0CE23",
"3	c #C1CF25",
"4	c #C6D32A",
"5	c #CFDC34",
"6	c #DAE840",
"7	c #DCEA43",
"8	c #BCCA22",
"9	c #BCC922",
"0	c #BDCA24",
"a	c #BECC26",
"b	c #C1CE2A",
"c	c #C2CF2B",
"d	c #BECC29",
"e	c #B8C621",
"f	c #B8C521",
"g	c #B7C522",
"h	c #B7C422",
"i	c #B5C220",
"j	c #B4C120",
"k	c #B3C020",
"l	c #B3C021",
"m	c #B2BF20",
"n	c #B1BE20",
"o	c #B0BD20",
"p	c #AEBB1F",
"q	c #AEBA1F",
"r	c #ABB81F",
"s	c #ACB81F",
"t	c #A8B51E",
"u	c #A9B51E",
"v	c #A6B21E",
"w	c #A3AF1D",
"                    ",
"                    ",
"  .                 ",
"  +@                ",
"  #$%               ",
"  &*=-              ",
"  ;>,')             ",
"  !~{]^/            ",
"  (_:<[}|           ",
"  12234567          ",
"  88980abcd         ",
"  eeefghhh          ",
"  iiijjkl           ",
"  mmnnoo            ",
"  pppqq             ",
"  rsrr              ",
"  ttu               ",
"  vv                ",
"  w                 ",
"                    "};
