/* XPM */
static char * green_led_dark_xpm[] = {
"13 13 2 1",
" 	c None",
".	c #62A262",
"    .....    ",
"  .........  ",
" ........... ",
" ........... ",
".............",
".............",
".............",
".............",
".............",
" ........... ",
" ........... ",
"  .........  ",
"    .....    "};
