/* XPM */
static char * green_dark_big_xpm[] = {
"55 55 110 2",
"  	c None",
". 	c #204C20",
"+ 	c #204D20",
"@ 	c #214D20",
"# 	c #214E21",
"$ 	c #1F4B1F",
"% 	c #204B1F",
"& 	c #214F21",
"* 	c #224F21",
"= 	c #225022",
"- 	c #225122",
"; 	c #235122",
"> 	c #1F4A1F",
", 	c #235223",
"' 	c #245323",
") 	c #245424",
"! 	c #235323",
"~ 	c #245524",
"{ 	c #255524",
"] 	c #255625",
"^ 	c #265725",
"/ 	c #265826",
"( 	c #275926",
"_ 	c #275A27",
": 	c #285B27",
"< 	c #285C28",
"[ 	c #295D28",
"} 	c #295E29",
"| 	c #2A5F29",
"1 	c #2A5F2A",
"2 	c #2A602A",
"3 	c #2B612A",
"4 	c #235222",
"5 	c #265726",
"6 	c #2A5E29",
"7 	c #2B622B",
"8 	c #2C622B",
"9 	c #2C632B",
"0 	c #2C642C",
"a 	c #2D642C",
"b 	c #2D652C",
"c 	c #2D662D",
"d 	c #2E662D",
"e 	c #2E672D",
"f 	c #2E672E",
"g 	c #295D29",
"h 	c #2D652D",
"i 	c #2E682E",
"j 	c #2F692E",
"k 	c #2F692F",
"l 	c #306A2F",
"m 	c #306B2F",
"n 	c #2C632C",
"o 	c #2F682E",
"p 	c #306B30",
"q 	c #316C30",
"r 	c #316D30",
"s 	c #326D31",
"t 	c #326E31",
"u 	c #326F32",
"v 	c #337032",
"w 	c #337133",
"x 	c #347133",
"y 	c #347233",
"z 	c #347334",
"A 	c #357434",
"B 	c #357535",
"C 	c #367535",
"D 	c #357334",
"E 	c #367635",
"F 	c #377736",
"G 	c #377836",
"H 	c #377837",
"I 	c #387937",
"J 	c #387A38",
"K 	c #397B38",
"L 	c #397C38",
"M 	c #397C39",
"N 	c #3A7C39",
"O 	c #3A7E39",
"P 	c #3B7F3A",
"Q 	c #3B803A",
"R 	c #387A37",
"S 	c #3C813B",
"T 	c #3C823B",
"U 	c #3D833C",
"V 	c #3A7D39",
"W 	c #3D843D",
"X 	c #3E853D",
"Y 	c #3E863D",
"Z 	c #3F863E",
"` 	c #3D843C",
" .	c #3F873E",
"..	c #40883F",
"+.	c #40893F",
"@.	c #418A40",
"#.	c #418B40",
"$.	c #428B41",
"%.	c #428D41",
"&.	c #438D42",
"*.	c #438E42",
"=.	c #428C41",
"-.	c #438F42",
";.	c #448F43",
">.	c #449043",
",.	c #459143",
"'.	c #459244",
").	c #459344",
"!.	c #469345",
"~.	c #469445",
"                                          . + @ @ @ @ # # @ @ @ @ +                                           ",
"                              $ % . . @ @ # # & * * * * * * * * & # # @ @ . . %                               ",
"                          $ % . + @ # & * = = - ; ; ; ; ; ; ; ; - = = * & # @ + . %                           ",
"                      > % . + # # * = - ; , , ' ' ' ) ) ) ) ' ' ' , , ; - = * # # + . %                       ",
"                    $ % . @ # * = ; , ! ' ) ~ { { ] ] ] ] ] ] { { ~ ) ' ! , ; = * # @ . %                     ",
"                  $ . @ # * = ; , ' ) { { ] ^ ^ / / / ( ( / / / ^ ^ ] { { ) ' , ; = * # @ .                   ",
"                % . @ # * - , ' ) { ] ^ / ( ( _ _ : : : : : : _ _ ( ( / ^ ] { ) ' , - * # @ .                 ",
"              % . @ & = ; , ) { ] ^ / ( _ : < [ [ } } } } } } [ [ < : _ ( / ^ ] { ) , ; = & @ .               ",
"            % . @ & = ; ' ) { ^ / ( : < [ } | 1 2 3 3 3 3 3 3 2 1 | } [ < : ( / ^ { ) ' ; = & @ .             ",
"          $ . @ & = 4 ' ~ ] 5 ( _ < [ 6 2 3 7 8 9 0 0 a a 0 0 9 8 7 3 2 6 [ < _ ( 5 ] ~ ' 4 = & @ .           ",
"        $ . @ & = 4 ' { ] / _ : [ 6 2 3 8 0 b c d e f f f f e d c b 0 8 3 2 6 [ : _ / ] { ' 4 = & @ .         ",
"      > % @ # = ; ' { ] / _ < g | 3 8 0 h e i j k l m m m m l k j i e h 0 8 3 | g < _ / ] { ' ; = # @ %       ",
"      % . # * ; ' ~ ] / _ < } 2 7 n h e o l p q r s t t t t s r q p l o e h n 7 2 } < _ / ] ~ ' ; * # .       ",
"    $ . @ * - , ) ] / _ < } 2 8 a d o l p r t u v w x y y x w v u t r p l o d a 8 2 } < _ / ] ) , - * @ .     ",
"    % + # = , ) { 5 _ < } 2 8 a e j m r t v x z A A B C C B A A z x v t r m j e a 8 2 } < _ 5 { ) , = # +     ",
"  $ . # * ; ' { ^ ( : g 2 8 a e k p s v x D B E F G H I I H G F E B D x v s p k e a 8 2 g : ( ^ { ' ; * # .   ",
"  % + # = , ) ] / _ [ | 7 a e k q t v y A E G I J K L M M L K J I G E A y v t q k e a 7 | [ _ / ] ) , = # +   ",
"  . @ * ; ' { ^ ( < 6 3 n d j p t v z C F I K N O P P Q Q P P O N K I F C z v t p j d n 3 6 < ( ^ { ' ; * @   ",
"  . # = , ) ] / : [ 2 8 h o m s v z C G R M O Q S T U U U U T S Q O M R G C z v s m o h 8 2 [ : / ] ) , = # . ",
"  @ & - ! { ^ ( < 6 3 0 e l r v y C G J V P S U W X Y Z Z Y X W U S P V J G C y v r l e 0 3 6 < ( ^ { ! - & @ ",
"  @ * ; ' { / _ [ 2 8 h o p t x A F R V P T ` X  .....+.+..... .X ` T P V R F A x t p o h 8 2 [ _ / { ' ; * @ ",
". # = , ) ] ( : } 3 0 e l r v D E I M P T W Z ..+.@.#.$.$.#.@.+...Z W T P M I E D v r l e 0 3 } : ( ] ) , = # ",
"+ # = , ~ ^ ( < | 7 b i p t x B G K O S ` Z ..@.$.%.&.*.*.&.%.$.@...Z ` S O K G B x t p i b 7 | < ( ^ ~ , = # ",
"@ & - ' { ^ _ [ 1 8 c j q u z E I N Q U X ..@.=.&.-.;.>.>.;.-.&.=.@...X U Q N I E z u q j c 8 1 [ _ ^ { ' - & ",
"@ * ; ' { / _ [ 2 9 d k r v A F J O S W  .+.$.&.-.>.,.'.'.,.>.-.&.$.+. .W S O J F A v r k d 9 2 [ _ / { ' ; * ",
"@ * ; ' ] / : } 3 0 e l s w A G K P T X ..@.%.-.>.'.'.).).'.'.>.-.%.@...X T P K G A w s l e 0 3 } : / ] ' ; * ",
"@ * ; ) ] / : } 3 0 f m t x B H L P U Y ..#.&.;.,.'.!.~.~.!.'.,.;.&.#...Y U P L H B x t m f 0 3 } : / ] ) ; * ",
"# * ; ) ] ( : } 3 a f m t y C I M Q U Z +.$.*.>.'.).~.~.~.~.).'.>.*.$.+.Z U Q M I C y t m f a 3 } : ( ] ) ; * ",
"# * ; ) ] ( : } 3 a f m t y C I M Q U Z +.$.*.>.'.).~.~.~.~.).'.>.*.$.+.Z U Q M I C y t m f a 3 } : ( ] ) ; * ",
"@ * ; ) ] / : } 3 0 f m t x B H L P U Y ..#.&.;.,.'.!.~.~.!.'.,.;.&.#...Y U P L H B x t m f 0 3 } : / ] ) ; * ",
"@ * ; ' ] / : } 3 0 e l s w A G K P T X ..@.%.-.>.'.'.).).'.'.>.-.%.@...X T P K G A w s l e 0 3 } : / ] ' ; * ",
"@ * ; ' { / _ [ 2 9 d k r v A F J O S W  .+.$.&.-.>.,.'.'.,.>.-.&.$.+. .W S O J F A v r k d 9 2 [ _ / { ' ; * ",
"@ & - ' { ^ _ [ 1 8 c j q u z E I N Q U X ..@.=.&.-.;.>.>.;.-.&.=.@...X U Q N I E z u q j c 8 1 [ _ ^ { ' - & ",
"+ # = , ~ ^ ( < | 7 b i p t x B G K O S ` Z ..@.$.%.&.*.*.&.%.$.@...Z ` S O K G B x t p i b 7 | < ( ^ ~ , = # ",
"  # = , ) ] ( : } 3 0 e l r v D E I M P T W Z ..+.@.#.$.$.#.@.+...Z W T P M I E D v r l e 0 3 } : ( ] ) , = # ",
"  @ * ; ' { / _ [ 2 8 h o p t x A F R V P T ` X  .....+.+..... .X ` T P V R F A x t p o h 8 2 [ _ / { ' ; * @ ",
"  @ & - ! { ^ ( < 6 3 0 e l r v y C G J V P S U W X Y Z Z Y X W U S P V J G C y v r l e 0 3 6 < ( ^ { ! - & @ ",
"  . # = , ) ] / : [ 2 8 h o m s v z C G R M O Q S T U U U U T S Q O M R G C z v s m o h 8 2 [ : / ] ) , = #   ",
"  . @ * ; ' { ^ ( < 6 3 n d j p t v z C F I K N O P P Q Q P P O N K I F C z v t p j d n 3 6 < ( ^ { ' ; * @   ",
"  % + # = , ) ] / _ [ | 7 a e k q t v y A E G I J K L M M L K J I G E A y v t q k e a 7 | [ _ / ] ) , = # +   ",
"    . # * ; ' { ^ ( : g 2 8 a e k p s v x D B E F G H I I H G F E B D x v s p k e a 8 2 g : ( ^ { ' ; * #     ",
"    % + # = , ) { 5 _ < } 2 8 a e j m r t v x z A A B C C B A A z x v t r m j e a 8 2 } < _ 5 { ) , = # +     ",
"      . @ * - , ) ] / _ < } 2 8 a d o l p r t u v w x y y x w v u t r p l o d a 8 2 } < _ / ] ) , - * @       ",
"      % . # * ; ' ~ ] / _ < } 2 7 n h e o l p q r s t t t t s r q p l o e h n 7 2 } < _ / ] ~ ' ; * # .       ",
"        % @ # = ; ' { ] / _ < g | 3 8 0 h e i j k l m m m m l k j i e h 0 8 3 | g < _ / ] { ' ; = # @         ",
"          . @ & = 4 ' { ] / _ : [ 6 2 3 8 0 b c d e f f f f e d c b 0 8 3 2 6 [ : _ / ] { ' 4 = & @           ",
"            . @ & = 4 ' ~ ] 5 ( _ < [ 6 2 3 7 8 9 0 0 a a 0 0 9 8 7 3 2 6 [ < _ ( 5 ] ~ ' 4 = & @             ",
"              . @ & = ; ' ) { ^ / ( : < [ } | 1 2 3 3 3 3 3 3 2 1 | } [ < : ( / ^ { ) ' ; = & @               ",
"                . @ & = ; , ) { ] ^ / ( _ : < [ [ } } } } } } [ [ < : _ ( / ^ ] { ) , ; = & @                 ",
"                  . @ # * - , ' ) { ] ^ / ( ( _ _ : : : : : : _ _ ( ( / ^ ] { ) ' , - * # @                   ",
"                    . @ # * = ; , ' ) { { ] ^ ^ / / / ( ( / / / ^ ^ ] { { ) ' , ; = * # @                     ",
"                      % . @ # * = ; , ! ' ) ~ { { ] ] ] ] ] ] { { ~ ) ' ! , ; = * # @ .                       ",
"                          . + # # * = - ; , , ' ' ' ) ) ) ) ' ' ' , , ; - = * # # +                           ",
"                              . + @ # & * = = - ; ; ; ; ; ; ; ; - = = * & # @ +                               ",
"                                    . @ @ # # & * * * * * * * * & # # @ @                                     "};
