/* XPM */
static char * orange_dark_big_xpm[] = {
"55 55 147 2",
"  	c None",
". 	c #7F2F0D",
"+ 	c #80300D",
"@ 	c #81300D",
"# 	c #81310D",
"$ 	c #7C2E0C",
"% 	c #7D2E0C",
"& 	c #7E2F0C",
"* 	c #82310D",
"= 	c #83320E",
"- 	c #84320E",
"; 	c #7C2D0C",
"> 	c #7E2E0C",
", 	c #84330E",
"' 	c #85330E",
") 	c #86340E",
"! 	c #86340F",
"~ 	c #87340F",
"{ 	c #85340E",
"] 	c #87350F",
"^ 	c #88350F",
"/ 	c #89360F",
"( 	c #8A360F",
"_ 	c #8A370F",
": 	c #8A3710",
"< 	c #88360F",
"[ 	c #8B3810",
"} 	c #8C3810",
"| 	c #8D3910",
"1 	c #8E3910",
"2 	c #8E3911",
"3 	c #8F3A11",
"4 	c #903B11",
"5 	c #913B11",
"6 	c #913C11",
"7 	c #913C12",
"8 	c #923D12",
"9 	c #933D12",
"0 	c #943E12",
"a 	c #953E12",
"b 	c #953E13",
"c 	c #953F13",
"d 	c #963F13",
"e 	c #974013",
"f 	c #984113",
"g 	c #994114",
"h 	c #8B3710",
"i 	c #984013",
"j 	c #9A4214",
"k 	c #9B4314",
"l 	c #9C4415",
"m 	c #9D4415",
"n 	c #9E4515",
"o 	c #923C12",
"p 	c #9C4314",
"q 	c #9F4515",
"r 	c #A04616",
"s 	c #A14716",
"t 	c #A24816",
"u 	c #9C4315",
"v 	c #A34817",
"w 	c #A44917",
"x 	c #A54A17",
"y 	c #A64B17",
"z 	c #A74B18",
"A 	c #8E3A11",
"B 	c #984114",
"C 	c #A64A17",
"D 	c #A74C18",
"E 	c #A94D18",
"F 	c #AA4E19",
"G 	c #AB4E19",
"H 	c #AC4F19",
"I 	c #A84C18",
"J 	c #AE501A",
"K 	c #AF511A",
"L 	c #B0521A",
"M 	c #B1521B",
"N 	c #9F4615",
"O 	c #AD4F19",
"P 	c #B2541B",
"Q 	c #B4551B",
"R 	c #B5551C",
"S 	c #B6561C",
"T 	c #A34816",
"U 	c #B1531B",
"V 	c #B3541B",
"W 	c #B7571C",
"X 	c #B9581D",
"Y 	c #BA591D",
"Z 	c #BB5A1D",
"` 	c #BB5A1E",
" .	c #B8581D",
"..	c #BC5B1E",
"+.	c #BE5C1E",
"@.	c #BF5D1F",
"#.	c #C05D1F",
"$.	c #C05E1F",
"%.	c #AD5019",
"&.	c #BD5B1E",
"*.	c #C15E1F",
"=.	c #C35F20",
"-.	c #C46020",
";.	c #C56120",
">.	c #C56121",
",.	c #B4551C",
"'.	c #B8571D",
").	c #C36020",
"!.	c #C66221",
"~.	c #C76321",
"{.	c #C96422",
"].	c #CA6522",
"^.	c #C25F20",
"/.	c #C86321",
"(.	c #CC6623",
"_.	c #CD6723",
":.	c #CE6823",
"<.	c #CF6823",
"[.	c #D06A24",
"}.	c #D26B24",
"|.	c #D36B25",
"1.	c #D36C25",
"2.	c #D06924",
"3.	c #D46D25",
"4.	c #D66E26",
"5.	c #D76E26",
"6.	c #D76F26",
"7.	c #D86F26",
"8.	c #DA7027",
"9.	c #DB7127",
"0.	c #DB7227",
"a.	c #D97027",
"b.	c #DD7328",
"c.	c #DE7428",
"d.	c #DF7428",
"e.	c #DC7227",
"f.	c #E07529",
"g.	c #E17629",
"h.	c #E07629",
"i.	c #E27729",
"j.	c #E3782A",
"k.	c #E4782A",
"l.	c #E5792A",
"m.	c #E67A2A",
"n.	c #E67A2B",
"o.	c #E77A2B",
"p.	c #E87B2B",
"                                          . + + + @ @ # # @ @ + + +                                           ",
"                              $ % & . + @ * * = = = - - - - = = = * * @ + . & %                               ",
"                          ; > . + @ * = - , ' ) ) ! ~ ~ ~ ~ ! ) ) ' , - = * @ + . >                           ",
"                      ; % & + # * = , { ! ] ^ / / ( _ : : _ ( / / ^ ] ! { , = * # + & %                       ",
"                    $ > . @ * = ' ) ] < ( : [ } | | | 1 1 | | | } [ : ( < ] ) ' = * @ . >                     ",
"                  % & + # = ' ) ^ / : } | 2 3 4 4 5 6 7 7 6 5 4 4 3 2 | } : / ^ ) ' = # + &                   ",
"                % . + * - { ] / : } 1 3 4 7 8 9 0 a b c c b a 0 9 8 7 4 3 1 } : / ] { - * + .                 ",
"              % . @ = , ) ^ _ } 1 3 5 8 0 c d e f g g g g g g f e d c 0 8 5 3 1 } _ ^ ) , = @ .               ",
"            % . @ = ' ~ / h | 3 5 9 0 d i g j k l m m n n m m l k j g i d 0 9 5 3 | h / ~ ' = @ .             ",
"          % . @ = ' ] / [ 1 4 o 0 d f j p m q r s s t t t t s s r q m p j f d 0 o 4 1 [ / ] ' = @ .           ",
"        $ & + = ' ] / } 2 4 9 c e j u n r s v w x y z z z z y x w v s r n u j e c 9 4 2 } / ] ' = + &         ",
"      ; > + * , ~ / } A 5 9 d B k m r t w C D E F G H H H H G F E D C w t r m k B d 9 5 A } / ~ , * + >       ",
"      % . # - ) / [ 2 5 9 d g u q s w y I F H J K L L M M L L K J H F I y w s q u g d 9 5 2 [ / ) - # .       ",
"    ; & @ = { ^ h 1 4 9 d g l N t x I F O K M P Q R S S S S R Q P M K O F I x t N l g d 9 4 1 h ^ { = @ &     ",
"    > + * ' ] _ | 4 9 d g l r T C E H K U V S W X Y Z ` ` Z Y X W S V U K H E C T r l g d 9 4 | _ ] ' * +     ",
"  $ . # = ) / } 3 o c B u N T y E O L V S  .Y ..+.@.#.$.$.#.@.+...Y  .S V L O E y T N u B c o 3 } / ) = # .   ",
"  % + * ' ^ : 1 5 0 e k q t C E %.L Q W Y &.@.*.=.-.;.>.>.;.-.=.*.@.&.Y W Q L %.E C t q k e 0 5 1 : ^ ' * +   ",
"  & @ = ) / } 3 9 d j m s x E O L ,.'.` +.*.).!.~.{.].].].].{.~.!.).*.+.` '.,.L O E x s m j d 9 3 } / ) = @   ",
"  . * , ] : 1 5 0 f u r w I H L Q '.` @.^.>./.].(._.:.<.<.:._.(.]./.>.^.@.` '.Q L H I w r u f 0 5 1 : ] , * . ",
"  + = { < } 3 8 d j n t y F K V W ` @.=.!.{.(.:.[.}.|.1.1.|.}.[.:.(.{.!.=.@.` W V K F y t n j d 8 3 } < { = + ",
"  @ - ! ( | 4 0 i p r w I O U S Y +.^.!.]._.2.}.3.4.5.6.6.5.4.3.}.2._.].!.^.+.Y S U O I w r p i 0 4 | ( ! - @ ",
". * , ] : 2 7 c g m s C F K V  .&.*.>.{._.[.1.4.7.8.9.0.0.9.8.7.4.1.[._.{.>.*.&. .V K F C s m g c 7 2 : ] , * ",
"+ * ' ^ [ 3 8 d j q v D H M S Y @.)./.(.2.1.4.a.0.b.c.d.d.c.b.0.a.4.1.2.(./.).@.Y S M H D v q j d 8 3 [ ^ ' * ",
"+ = ) / } 4 9 e k r w E J P W ..*.!.].:.}.4.a.e.c.f.g.g.g.g.f.c.e.a.4.}.:.].!.*...W P J E w r k e 9 4 } / ) = ",
"+ = ) / | 4 0 f l s x F K Q X +.=.~.(.[.3.7.0.c.h.i.j.k.k.j.i.h.c.0.7.3.[.(.~.=.+.X Q K F x s l f 0 4 | / ) = ",
"@ = ! ( | 5 a g m s y G L R Y @.-.{._.}.4.8.b.f.i.k.l.m.m.l.k.i.f.b.8.4.}._.{.-.@.Y R L G y s m g a 5 | ( ! = ",
"@ - ~ _ | 6 b g m t z H L S Z #.;.].:.|.5.9.c.g.j.l.n.o.o.n.l.j.g.c.9.5.|.:.].;.#.Z S L H z t m g b 6 | _ ~ - ",
"# - ~ : 1 7 c g n t z H M S ` $.>.].<.1.6.0.d.g.k.m.o.p.p.o.m.k.g.d.0.6.1.<.].>.$.` S M H z t n g c 7 1 : ~ - ",
"# - ~ : 1 7 c g n t z H M S ` $.>.].<.1.6.0.d.g.k.m.o.p.p.o.m.k.g.d.0.6.1.<.].>.$.` S M H z t n g c 7 1 : ~ - ",
"@ - ~ _ | 6 b g m t z H L S Z #.;.].:.|.5.9.c.g.j.l.n.o.o.n.l.j.g.c.9.5.|.:.].;.#.Z S L H z t m g b 6 | _ ~ - ",
"@ = ! ( | 5 a g m s y G L R Y @.-.{._.}.4.8.b.f.i.k.l.m.m.l.k.i.f.b.8.4.}._.{.-.@.Y R L G y s m g a 5 | ( ! = ",
"+ = ) / | 4 0 f l s x F K Q X +.=.~.(.[.3.7.0.c.h.i.j.k.k.j.i.h.c.0.7.3.[.(.~.=.+.X Q K F x s l f 0 4 | / ) = ",
"+ = ) / } 4 9 e k r w E J P W ..*.!.].:.}.4.a.e.c.f.g.g.g.g.f.c.e.a.4.}.:.].!.*...W P J E w r k e 9 4 } / ) = ",
"+ * ' ^ [ 3 8 d j q v D H M S Y @.)./.(.2.1.4.a.0.b.c.d.d.c.b.0.a.4.1.2.(./.).@.Y S M H D v q j d 8 3 [ ^ ' * ",
"  * , ] : 2 7 c g m s C F K V  .&.*.>.{._.[.1.4.7.8.9.0.0.9.8.7.4.1.[._.{.>.*.&. .V K F C s m g c 7 2 : ] , * ",
"  @ - ! ( | 4 0 i p r w I O U S Y +.^.!.]._.2.}.3.4.5.6.6.5.4.3.}.2._.].!.^.+.Y S U O I w r p i 0 4 | ( ! - @ ",
"  + = { < } 3 8 d j n t y F K V W ` @.=.!.{.(.:.[.}.|.1.1.|.}.[.:.(.{.!.=.@.` W V K F y t n j d 8 3 } < { = + ",
"  . * , ] : 1 5 0 f u r w I H L Q '.` @.^.>./.].(._.:.<.<.:._.(.]./.>.^.@.` '.Q L H I w r u f 0 5 1 : ] , *   ",
"  & @ = ) / } 3 9 d j m s x E O L ,.'.` +.*.).!.~.{.].].].].{.~.!.).*.+.` '.,.L O E x s m j d 9 3 } / ) = @   ",
"  % + * ' ^ : 1 5 0 e k q t C E %.L Q W Y &.@.*.=.-.;.>.>.;.-.=.*.@.&.Y W Q L %.E C t q k e 0 5 1 : ^ ' * +   ",
"    . # = ) / } 3 o c B u N T y E O L V S  .Y ..+.@.#.$.$.#.@.+...Y  .S V L O E y T N u B c o 3 } / ) = #     ",
"    > + * ' ] _ | 4 9 d g l r T C E H K U V S W X Y Z ` ` Z Y X W S V U K H E C T r l g d 9 4 | _ ] ' * +     ",
"      & @ = { ^ h 1 4 9 d g l N t x I F O K M P Q R S S S S R Q P M K O F I x t N l g d 9 4 1 h ^ { = @       ",
"      % . # - ) / [ 2 5 9 d g u q s w y I F H J K L L M M L L K J H F I y w s q u g d 9 5 2 [ / ) - # .       ",
"        > + * , ~ / } A 5 9 d B k m r t w C D E F G H H H H G F E D C w t r m k B d 9 5 A } / ~ , * +         ",
"          & + = ' ] / } 2 4 9 c e j u n r s v w x y z z z z y x w v s r n u j e c 9 4 2 } / ] ' = +           ",
"            . @ = ' ] / [ 1 4 o 0 d f j p m q r s s t t t t s s r q m p j f d 0 o 4 1 [ / ] ' = @             ",
"              . @ = ' ~ / h | 3 5 9 0 d i g j k l m m n n m m l k j g i d 0 9 5 3 | h / ~ ' = @               ",
"                . @ = , ) ^ _ } 1 3 5 8 0 c d e f g g g g g g f e d c 0 8 5 3 1 } _ ^ ) , = @                 ",
"                  . + * - { ] / : } 1 3 4 7 8 9 0 a b c c b a 0 9 8 7 4 3 1 } : / ] { - * +                   ",
"                    & + # = ' ) ^ / : } | 2 3 4 4 5 6 7 7 6 5 4 4 3 2 | } : / ^ ) ' = # +                     ",
"                      > . @ * = ' ) ] < ( : [ } | | | 1 1 | | | } [ : ( < ] ) ' = * @ .                       ",
"                          & + # * = , { ! ] ^ / / ( _ : : _ ( / / ^ ] ! { , = * # +                           ",
"                              . + @ * = - , ' ) ) ! ~ ~ ~ ~ ! ) ) ' , - = * @ +                               ",
"                                    . + @ * * = = = - - - - = = = * * @ +                                     "};
