/* XPM */
static char * rec_xpm[] = {
"16 16 87 1",
" 	c None",
".	c #AD1313",
"+	c #B21717",
"@	c #B81C1C",
"#	c #C22525",
"$	c #D03131",
"%	c #E14141",
"&	c #AA1212",
"*	c #AE1414",
"=	c #B31818",
"-	c #BC2020",
";	c #C82B2B",
">	c #DA3C3C",
",	c #F05151",
"'	c #FF6868",
")	c #A71111",
"!	c #AE1515",
"~	c #B41A1A",
"{	c #BE2323",
"]	c #CE3131",
"^	c #E44646",
"/	c #FF6060",
"(	c #FF7B7B",
"_	c #FF9393",
":	c #A51010",
"<	c #B51B1B",
"[	c #C02525",
"}	c #D23636",
"|	c #EB4D4D",
"1	c #FF6A6A",
"2	c #FF8888",
"3	c #FFA1A1",
"4	c #FFB0B0",
"5	c #A41010",
"6	c #A61111",
"7	c #A91212",
"8	c #AD1515",
"9	c #C02626",
"0	c #D33737",
"a	c #EC4F4F",
"b	c #FF6C6C",
"c	c #FF8A8A",
"d	c #FFAEAE",
"e	c #A81212",
"f	c #AC1515",
"g	c #B31B1B",
"h	c #BE2424",
"i	c #CF3434",
"j	c #E74B4B",
"k	c #FF6565",
"l	c #FF7F7F",
"m	c #FF9D9D",
"n	c #A31010",
"o	c #A71212",
"p	c #AB1414",
"q	c #B11919",
"r	c #BA2121",
"s	c #C92E2E",
"t	c #DC4141",
"u	c #F35656",
"v	c #FF6B6B",
"w	c #FF7A7A",
"x	c #FF8181",
"y	c #A21010",
"z	c #A91313",
"A	c #AE1717",
"B	c #B51D1D",
"C	c #C02727",
"D	c #DF4343",
"E	c #EF5252",
"F	c #FB5D5D",
"G	c #FF6262",
"H	c #A51111",
"I	c #AB1515",
"J	c #B81F1F",
"K	c #C22828",
"L	c #CD3232",
"M	c #D83B3B",
"N	c #E04242",
"O	c #B81E1E",
"P	c #BF2424",
"Q	c #C52A2A",
"R	c #CB2E2E",
"S	c #B01818",
"T	c #B91E1E",
"U	c #AC1414",
"V	c #AE1616",
"                ",
"                ",
"     .+@#$%     ",
"    &*=-;>,'    ",
"   )&!~{]^/(_   ",
"  :)&!<[}|1234  ",
"  5678<90abc3d  ",
"  56efghijkl_m  ",
"  n:opqrstuvwx  ",
"  y56zABCiDEFG  ",
"  ynHeIqJKLMN^  ",
"   y56zfqOPQR   ",
"    n:)z8S<T    ",
"     nH)zUV     ",
"                ",
"                "};
