/* XPM */
const char * rec_armed_xpm[] = {
"16 16 81 1",
" 	c None",
".	c #C85916",
"+	c #CE5E1A",
"@	c #D06220",
"#	c #D66C2C",
"$	c #D57B45",
"%	c #E48952",
"&	c #C55715",
"*	c #C95A17",
"=	c #CE5F1C",
"-	c #D46624",
";	c #D57439",
">	c #DD844F",
",	c #F19863",
"'	c #FEAA78",
")	c #C25514",
"!	c #CA5B18",
"~	c #CD5F1D",
"{	c #D56927",
"]	c #D37B45",
"^	c #E68D58",
"/	c #FEA570",
"(	c #FFB487",
"_	c #FFC29D",
":	c #C35513",
"<	c #CD601F",
"[	c #D66B2A",
"}	c #D67F4A",
"|	c #EC935E",
"1	c #FEAC7A",
"2	c #FFBC93",
"3	c #FECAAA",
"4	c #FFD2B7",
"5	c #C15413",
"6	c #C85A18",
"7	c #D56B2B",
"8	c #D77F49",
"9	c #ED9661",
"0	c #FEAD7C",
"a	c #FFBD95",
"b	c #FFD1B5",
"c	c #C35615",
"d	c #CB601F",
"e	c #D46928",
"f	c #D47D48",
"g	c #E9925D",
"h	c #FEA874",
"i	c #FFB78B",
"j	c #FEC7A6",
"k	c #C15513",
"l	c #C35715",
"m	c #C75917",
"n	c #CB5E1D",
"o	c #D36725",
"p	c #D3763D",
"q	c #DF8853",
"r	c #F49C66",
"s	c #FFB88D",
"t	c #BF5413",
"u	c #C45816",
"v	c #C95C1B",
"w	c #CD6221",
"x	c #D56C2D",
"y	c #E28A54",
"z	c #F09964",
"A	c #FBA26D",
"B	c #FEA772",
"C	c #C25614",
"D	c #C65A18",
"E	c #D16523",
"F	c #D46E30",
"G	c #D27B46",
"H	c #DC844E",
"I	c #E28954",
"J	c #D06322",
"K	c #D66A28",
"L	c #D47136",
"M	c #D4773E",
"N	c #CA5D1C",
"O	c #D26422",
"P	c #C95B19",
"                ",
"                ",
"     .+@#$%     ",
"    &*=-;>,'    ",
"   )&!~{]^/(_   ",
"  :)&!<[}|1234  ",
"  5)&6<7890a3b  ",
"  5)c6defghi_j  ",
"  k:lmnopqr1(s  ",
"  t5)uvwxfyzAB  ",
"  tkCcDnEFGHI^  ",
"   t5)u6nJKLM   ",
"    k:)u6N<O    ",
"     kC)umP     ",
"                ",
"                "};
