/* XPM */
static char * rec_dark_xpm[] = {
"16 16 40 1",
" 	c None",
".	c #7C5B5B",
"+	c #7D5E5E",
"@	c #7D6060",
"#	c #7E6464",
"$	c #7F6868",
"%	c #816C6C",
"&	c #7C5A5A",
"*	c #7C5C5C",
"=	c #7E6262",
"-	c #7F6666",
";	c #806B6B",
">	c #827070",
",	c #847474",
"'	c #7D5F5F",
")	c #7E6363",
"!	c #816D6D",
"~	c #847272",
"{	c #847676",
"]	c #847979",
"^	c #7B5959",
"/	c #806969",
"(	c #826F6F",
"_	c #847878",
":	c #847B7B",
"<	c #847D7D",
"[	c #7B5A5A",
"}	c #806A6A",
"|	c #847C7C",
"1	c #7F6969",
"2	c #826E6E",
"3	c #847373",
"4	c #847777",
"5	c #7D6262",
"6	c #7F6767",
"7	c #837171",
"8	c #7C5E5E",
"9	c #7D6161",
"0	c #7E6565",
"a	c #7C5D5D",
"                ",
"                ",
"     .+@#$%     ",
"    &*+=-;>,    ",
"   &&*')$!~{]   ",
"  ^&&*@#/(,_:<  ",
"  ^[&*@#}(,_:|  ",
"  ^[&*@#1234]:  ",
"  ^^&*'56%7,{4  ",
"  ^^[.8901!>~3  ",
"  ^^[&*'50$;%!  ",
"   ^^[.*'9#-6   ",
"    ^^&.*+@9    ",
"     ^[&.*a     ",
"                ",
"                "};
