/* XPM */
static char * red_dark_big_xpm[] = {
"55 55 110 2",
"  	c None",
". 	c #660506",
"+ 	c #670506",
"@ 	c #680506",
"# 	c #640405",
"$ 	c #650405",
"% 	c #660406",
"& 	c #690506",
"* 	c #6A0506",
"= 	c #6B0506",
"- 	c #6B0507",
"; 	c #650406",
"> 	c #6C0507",
", 	c #6D0507",
"' 	c #6E0507",
") 	c #6E0607",
"! 	c #6F0607",
"~ 	c #700607",
"{ 	c #710608",
"] 	c #720608",
"^ 	c #730608",
"/ 	c #740608",
"( 	c #750608",
"_ 	c #760709",
": 	c #770709",
"< 	c #780709",
"[ 	c #790709",
"} 	c #7A0709",
"| 	c #7B0709",
"1 	c #760608",
"2 	c #7C070A",
"3 	c #7D070A",
"4 	c #7E080A",
"5 	c #7F080A",
"6 	c #80080A",
"7 	c #81080B",
"8 	c #82080B",
"9 	c #83080B",
"0 	c #84080B",
"a 	c #85090B",
"b 	c #86090C",
"c 	c #87090C",
"d 	c #88090C",
"e 	c #89090C",
"f 	c #8A090C",
"g 	c #8B090D",
"h 	c #8C090D",
"i 	c #8B090C",
"j 	c #8D0A0D",
"k 	c #8E0A0D",
"l 	c #8F0A0D",
"m 	c #900A0D",
"n 	c #900A0E",
"o 	c #910A0E",
"p 	c #920A0E",
"q 	c #940A0E",
"r 	c #940B0E",
"s 	c #950B0E",
"t 	c #85080B",
"u 	c #970B0F",
"v 	c #980B0F",
"w 	c #990B0F",
"x 	c #9A0B0F",
"y 	c #930A0E",
"z 	c #960B0F",
"A 	c #9C0C10",
"B 	c #9D0C10",
"C 	c #9E0C10",
"D 	c #9F0C10",
"E 	c #A00C11",
"F 	c #A20C11",
"G 	c #A30D11",
"H 	c #A40D11",
"I 	c #9B0C10",
"J 	c #A50D11",
"K 	c #A60D12",
"L 	c #A70D12",
"M 	c #A80D12",
"N 	c #A90D12",
"O 	c #AB0E13",
"P 	c #AC0E13",
"Q 	c #AD0E13",
"R 	c #AF0E14",
"S 	c #B00E14",
"T 	c #B10F14",
"U 	c #B20F14",
"V 	c #B30F14",
"W 	c #B50F15",
"X 	c #B60F15",
"Y 	c #B70F15",
"Z 	c #B91015",
"` 	c #BA1016",
" .	c #BB1016",
"..	c #BC1016",
"+.	c #BD1016",
"@.	c #BE1016",
"#.	c #BF1117",
"$.	c #C01117",
"%.	c #C11117",
"&.	c #BE1017",
"*.	c #C21117",
"=.	c #C31117",
"-.	c #C41118",
";.	c #C51118",
">.	c #C61118",
",.	c #C71218",
"'.	c #C81218",
").	c #C81219",
"!.	c #C91219",
"~.	c #CA1219",
"                                          . + + @ @ @ @ @ @ @ @ + +                                           ",
"                              # $ % + @ @ & & * * = = - - = = * * & & @ @ + % $                               ",
"                          # ; . + @ & * = - > , , , ' ' ' ' , , , > - = * & @ + . ;                           ",
"                      # $ % + @ & = > , , ) ! ~ ~ ~ { { { { ~ ~ ~ ! ) , , > = & @ + % $                       ",
"                    # ; + @ & = > , ) ! ~ { ] ^ ^ / / / / / / ^ ^ ] { ~ ! ) , > = & @ + ;                     ",
"                  # % + & * > , ) ~ { ] ^ / ( _ : : : : : : : : _ ( / ^ ] { ~ ) , > * & + %                   ",
"                $ . @ & - , ' ~ { ^ / ( : < [ [ } | | | | | | } [ [ < : ( / ^ { ~ ' , - & @ .                 ",
"              $ . @ * - , ! { ] / 1 : [ } | 2 3 4 5 5 5 5 5 5 4 3 2 | } [ : 1 / ] { ! , - * @ .               ",
"            $ . @ * > ' ~ { ^ ( : [ } 2 4 5 6 7 8 9 9 9 9 9 9 8 7 6 5 4 2 } [ : ( ^ { ~ ' > * @ .             ",
"          # . @ * > ' ~ ] / _ < } 2 4 6 7 9 0 a b c c d d c c b a 0 9 7 6 4 2 } < _ / ] ~ ' > * @ .           ",
"        # % @ * > ' ~ ] / : [ | 3 5 8 9 a c d e f g h h h h g f e d c a 9 8 5 3 | [ : / ] ~ ' > * @ %         ",
"      # ; + & - ' ~ ] ( : [ 2 4 7 9 a c e i j k l m n o o n m l k j i e c a 9 7 4 2 [ : ( ] ~ ' - & + ;       ",
"      $ + & - , ~ ] / : } 2 5 8 0 c e g j l o p q r s s s s r q p o l j g e c 0 8 5 2 } : / ] ~ , - & +       ",
"    # % @ * , ! { / : [ 2 5 8 t d f j l o q s u v w x x x x w v u s q o l j f d t 8 5 2 [ : / { ! , * @ %     ",
"    ; + & > ' { ^ _ [ 2 5 8 t d i k o y z v x A B C D D D D C B A x v z y o k i d t 8 5 2 [ _ ^ { ' > & +     ",
"  # . @ = , ~ ] ( < | 4 8 t d g k o r u x A C E F G G H H G G F E C A x u r o k g d t 8 4 | < ( ] ~ , = @ .   ",
"  $ + & > ) { / : } 3 7 0 d i k p s v I C E G J K L M N N M L K J G E C I v s p k i d 0 7 3 } : / { ) > & +   ",
"  % @ = , ~ ^ 1 [ 2 5 9 c f k o s w A D F J L N O P Q Q Q Q P O N L J F D A w s o k f c 9 5 2 [ 1 ^ ~ , = @   ",
"  + & > ) { / : } 4 8 a e j o r v A D G K N O Q R S T U U T S R Q O N K G D A v r o j e a 8 4 } : / { ) > & + ",
"  @ * , ! ] ( [ 2 6 9 c g l y u I D G K N P R T V W X X X X W V T R P N K G D I u y l g c 9 6 2 [ ( ] ! , * @ ",
"  @ = , ~ ^ : } 4 7 a e j o z x C F K N Q S V W Y Z ` ` ` ` Z Y W V S Q N K F C x z o j e a 7 4 } : ^ ~ , = @ ",
". & - ) { / < | 5 9 c i l q v A E J N P S V X Z  ...+.@.@.+... .Z X V S P N J E A v q l i c 9 5 | < / { ) - & ",
"+ & > ! ] ( [ 2 6 0 d j o s x C G L O R V X Z ..@.#.$.%.%.$.#.@...Z X V R O L G C x s o j d 0 6 2 [ ( ] ! > & ",
"+ * , ~ ^ _ [ 3 7 a e k p u A E J N Q T W Z ..&.$.*.=.-.-.=.*.$.&...Z W T Q N J E A u p k e a 7 3 [ _ ^ ~ , * ",
"@ * , ~ ^ : } 4 8 b f l q v B F K O R V Y  .@.$.=.-.;.>.>.;.-.=.$.@. .Y V R O K F B v q l f b 8 4 } : ^ ~ , * ",
"@ = , ~ / : | 5 9 c g m r w C G L P S W Z ..#.*.-.>.,.'.'.,.>.-.*.#...Z W S P L G C w r m g c 9 5 | : / ~ , = ",
"@ = ' { / : | 5 9 c h n s x D G M Q T X ` +.$.=.;.,.).!.!.).,.;.=.$.+.` X T Q M G D x s n h c 9 5 | : / { ' = ",
"@ - ' { / : | 5 9 d h o s x D H N Q U X ` @.%.-.>.'.!.~.~.!.'.>.-.%.@.` X U Q N H D x s o h d 9 5 | : / { ' - ",
"@ - ' { / : | 5 9 d h o s x D H N Q U X ` @.%.-.>.'.!.~.~.!.'.>.-.%.@.` X U Q N H D x s o h d 9 5 | : / { ' - ",
"@ = ' { / : | 5 9 c h n s x D G M Q T X ` +.$.=.;.,.).!.!.).,.;.=.$.+.` X T Q M G D x s n h c 9 5 | : / { ' = ",
"@ = , ~ / : | 5 9 c g m r w C G L P S W Z ..#.*.-.>.,.'.'.,.>.-.*.#...Z W S P L G C w r m g c 9 5 | : / ~ , = ",
"@ * , ~ ^ : } 4 8 b f l q v B F K O R V Y  .@.$.=.-.;.>.>.;.-.=.$.@. .Y V R O K F B v q l f b 8 4 } : ^ ~ , * ",
"+ * , ~ ^ _ [ 3 7 a e k p u A E J N Q T W Z ..&.$.*.=.-.-.=.*.$.&...Z W T Q N J E A u p k e a 7 3 [ _ ^ ~ , * ",
"+ & > ! ] ( [ 2 6 0 d j o s x C G L O R V X Z ..@.#.$.%.%.$.#.@...Z X V R O L G C x s o j d 0 6 2 [ ( ] ! > & ",
"  & - ) { / < | 5 9 c i l q v A E J N P S V X Z  ...+.@.@.+... .Z X V S P N J E A v q l i c 9 5 | < / { ) - & ",
"  @ = , ~ ^ : } 4 7 a e j o z x C F K N Q S V W Y Z ` ` ` ` Z Y W V S Q N K F C x z o j e a 7 4 } : ^ ~ , = @ ",
"  @ * , ! ] ( [ 2 6 9 c g l y u I D G K N P R T V W X X X X W V T R P N K G D I u y l g c 9 6 2 [ ( ] ! , * @ ",
"  + & > ) { / : } 4 8 a e j o r v A D G K N O Q R S T U U T S R Q O N K G D A v r o j e a 8 4 } : / { ) > &   ",
"  % @ = , ~ ^ 1 [ 2 5 9 c f k o s w A D F J L N O P Q Q Q Q P O N L J F D A w s o k f c 9 5 2 [ 1 ^ ~ , = @   ",
"  $ + & > ) { / : } 3 7 0 d i k p s v I C E G J K L M N N M L K J G E C I v s p k i d 0 7 3 } : / { ) > & +   ",
"    . @ = , ~ ] ( < | 4 8 t d g k o r u x A C E F G G H H G G F E C A x u r o k g d t 8 4 | < ( ] ~ , = @     ",
"    ; + & > ' { ^ _ [ 2 5 8 t d i k o y z v x A B C D D D D C B A x v z y o k i d t 8 5 2 [ _ ^ { ' > & +     ",
"      % @ * , ! { / : [ 2 5 8 t d f j l o q s u v w x x x x w v u s q o l j f d t 8 5 2 [ : / { ! , * @       ",
"      $ + & - , ~ ] / : } 2 5 8 0 c e g j l o p q r s s s s r q p o l j g e c 0 8 5 2 } : / ] ~ , - & +       ",
"        ; + & - ' ~ ] ( : [ 2 4 7 9 a c e i j k l m n o o n m l k j i e c a 9 7 4 2 [ : ( ] ~ ' - & +         ",
"          % @ * > ' ~ ] / : [ | 3 5 8 9 a c d e f g h h h h g f e d c a 9 8 5 3 | [ : / ] ~ ' > * @           ",
"            . @ * > ' ~ ] / _ < } 2 4 6 7 9 0 a b c c d d c c b a 0 9 7 6 4 2 } < _ / ] ~ ' > * @             ",
"              . @ * > ' ~ { ^ ( : [ } 2 4 5 6 7 8 9 9 9 9 9 9 8 7 6 5 4 2 } [ : ( ^ { ~ ' > * @               ",
"                . @ * - , ! { ] / 1 : [ } | 2 3 4 5 5 5 5 5 5 4 3 2 | } [ : 1 / ] { ! , - * @                 ",
"                  . @ & - , ' ~ { ^ / ( : < [ [ } | | | | | | } [ [ < : ( / ^ { ~ ' , - & @                   ",
"                    % + & * > , ) ~ { ] ^ / ( _ : : : : : : : : _ ( / ^ ] { ~ ) , > * & +                     ",
"                      ; + @ & = > , ) ! ~ { ] ^ ^ / / / / / / ^ ^ ] { ~ ! ) , > = & @ +                       ",
"                          % + @ & = > , , ) ! ~ ~ ~ { { { { ~ ~ ~ ! ) , , > = & @ +                           ",
"                              . + @ & * = - > , , , ' ' ' ' , , , > - = * & @ +                               ",
"                                    + @ @ & & * * = = - - = = * * & & @ @                                     "};
